<svg xmlns="http://www.w3.org/2000/svg" xmlns:xlink="http://www.w3.org/1999/xlink" width="700" height="190" viewBox="0 0 700 190">
    <defs>
        <linearGradient id="b" x1="100%" x2="0%" y1="50%" y2="50%">
            <stop offset="0%" stop-color="#8C53EE"/>
            <stop offset="100%" stop-color="#7087ED"/>
        </linearGradient>
        <path id="a" d="M10 0h680c5.523 0 10 4.477 10 10v180H0V10C0 4.477 4.477 0 10 0z"/>
        <linearGradient id="d" x1="50%" x2="50%" y1="0%" y2="100%">
            <stop offset="0%" stop-color="#F1F3EF"/>
            <stop offset="100%" stop-color="#E9E9E4"/>
        </linearGradient>
        <linearGradient id="e" x1="50%" x2="50%" y1="0%" y2="100%">
            <stop offset="0%" stop-color="#DEDED3"/>
            <stop offset="100%" stop-color="#EEEEE8"/>
        </linearGradient>
    </defs>
    <g fill="none" fill-rule="evenodd">
        <g>
            <mask id="c" fill="#fff">
                <use xlink:href="#a"/>
            </mask>
            <use fill="url(#b)" xlink:href="#a"/>
            <path fill="#FFF" fill-rule="nonzero" d="M668 107c-31.48 0-57-25.52-57-57s25.52-57 57-57 57 25.52 57 57-25.52 57-57 57zm17.952-59.404c-10.28-29.243-17.842-26.313-40.288-17.619-12.348 5.147-15.901 8.181-15.652 18.356.182 7.411 7.857 29.268 16.91 33 8.888 3.664 34.538-8.788 38.766-12.443 4.95-4.278 3.77-11.32.264-21.294zm19.013-11.316l-.085-.217a78.85 78.85 0 0 0-6.365-12.656c-.71-.97-1.866-1.94-3.351-1.066-1.298 1.148-1.836 1.76-8.164 9.68a125.711 125.711 0 0 1 4.063 9.186l.086.217c1.281 3.253 2.4 6.486 3.36 9.669 8.27 1.45 11.364 1.994 12.693 1.896.962-.07 2.001-.89 1.764-2.962a77.773 77.773 0 0 0-4-13.747z" mask="url(#c)" opacity=".1"/>
        </g>
        <path fill="url(#d)" d="M5.625.19C2.649.19.236 2.588.236 5.545v135.789c0 2.957 2.416 5.355 5.389 5.355H108.95c2.976 0 5.389-2.398 5.389-5.355V5.544c0-2.957-2.416-5.354-5.389-5.354H5.625z" transform="rotate(90 291 333)"/>
        <path fill="#FFF" stroke="#000" stroke-opacity=".08" stroke-width=".672" d="M610.953 53.647H490.168v91.282h120.785z"/>
        <path fill="#9482E6" d="M610.953 53.647h-60.39v91.282h60.39z"/>
        <g>
            <path fill="url(#e)" d="M3.707 7.238c1.936 0 3.506-1.558 3.506-3.48C7.213 1.838 5.643.28 3.707.28 1.77.279.2 1.837.2 3.759c0 1.921 1.57 3.48 3.506 3.48z" transform="rotate(90 195.9 291.48)"/>
            <path fill="#D8D8D8" stroke="#B3B5B7" stroke-width=".5" d="M484.86 98.715a.672.672 0 0 0-.67-.675h-1.136c-.37 0-.67.3-.67.675v1.145c0 .373.298.676.67.676h1.136c.37 0 .67-.301.67-.676v-1.145z" opacity=".5"/>
        </g>
        <g>
            <path fill="#D4D4D4" d="M616.261 99.288c0 .46.37.832.826.832a.829.829 0 0 0 .825-.832c0-.46-.37-.832-.825-.832a.829.829 0 0 0-.826.832z"/>
            <path fill="#444EAA" d="M616.733 99.288c0 .197.158.356.354.356.195 0 .354-.16.354-.356a.355.355 0 0 0-.354-.357.355.355 0 0 0-.354.357z" opacity=".8"/>
        </g>
        <g>
            <path fill="#EAC3A2" d="M573.907 100.532h11.182v15.915h-11.182z"/>
            <path fill="#F1D9C5" d="M589.748 89.298v7.49c0 5.677-4.598 10.297-10.25 10.297-5.651 0-10.25-4.62-10.25-10.298v-7.49h20.5z"/>
            <path fill="#C6A279" d="M569.248 89.297c0-3.102 2.363-6.463 5.269-7.506l6.901-2.477a1.072 1.072 0 0 1 1.29.517l1.45 2.914c3.088 0 5.59 2.52 5.59 5.617v5.617c0-2.585-2.086-4.681-4.659-4.681h-11.181c-2.573 0-4.66 2.096-4.66 4.68v-4.681z"/>
            <path fill="#FFF" d="M600 119.264c0-1.556-1.145-3.32-2.563-3.944l-12.346-5.426-5.593 5.617-5.572-5.617-12.36 5.426c-1.417.622-2.566 2.39-2.566 3.944v2.797c0 .519.42.94.934.94h39.132a.93.93 0 0 0 .934-.94v-2.797z"/>
        </g>
        <g>
            <path fill="#C6A279" d="M510.475 117.383V91.17c0-6.721 5.383-12.17 12.025-12.17s12.025 5.449 12.025 12.17v26.213h-24.05z"/>
            <path fill="#EAC3A2" d="M516.95 100.532h11.1v14.042h-11.1z"/>
            <path fill="#444" d="M537.932 114.895l-9.882-5.001c-1.561 1.17-3.472 1.872-5.55 1.872a9.13 9.13 0 0 1-5.533-1.872l-9.899 5a5.624 5.624 0 0 0-3.068 5.024v2.14c0 .52.415.942.933.942h35.134a.934.934 0 0 0 .933-.942v-2.14a5.624 5.624 0 0 0-3.068-5.023"/>
            <path fill="#F1D9C5" d="M512.325 93.979v1.872c0 5.678 4.565 10.298 10.175 10.298s10.175-4.62 10.175-10.298V93.98c0-1.552-1.242-2.809-2.775-2.809-3.222 0-6.016-1.852-7.4-4.562-1.384 2.71-4.178 4.562-7.4 4.562-1.533 0-2.775 1.257-2.775 2.809"/>
            <path fill="#FFF" d="M514.671 111.053l1.801 4.211a.92.92 0 0 0 1.448.365l4.58-3.863a9.13 9.13 0 0 1-5.533-1.872l-2.296 1.16z"/>
            <path fill="#FFF" d="M528.05 109.894c-1.561 1.17-3.472 1.872-5.55 1.872l4.58 3.863a.92.92 0 0 0 1.448-.365l1.803-4.216-2.281-1.154z"/>
        </g>
        <g fill="#FFF">
            <path d="M55.314 76.222v3.401c-.855 3.971-4.161 5.662-7.239 5.662-4.218 0-7.638-3.629-7.638-8.113 0-4.503 3.23-8.132 7.638-8.132 2.755 0 4.674 1.026 6.042 2.679l-2.337 2.565c-.912-1.463-2.109-2.014-3.496-2.014-2.204 0-3.99 2.185-3.99 4.902 0 2.66 1.786 4.826 3.99 4.826 1.71 0 3.401-1.102 3.401-3.021h-3.61v-2.755h7.239zm12.395-6.897v3.135h-5.396v3.116h5.168v3.135h-5.168v3.154h5.396V85h-8.968V69.325h8.968zm2.914 3.135v-3.135h11.02v3.135h-3.724V85h-3.572V72.46h-3.724zm20.496 4.693c0-4.579 3.591-8.113 7.904-8.113 4.351 0 7.885 3.534 7.885 8.113s-3.382 8.132-7.885 8.132c-4.636 0-7.904-3.553-7.904-8.132zm3.857 0c0 2.337 1.121 4.674 4.047 4.674 2.85 0 4.028-2.337 4.028-4.674s-1.254-4.674-4.028-4.674c-2.755 0-4.047 2.337-4.047 4.674zm18.931-1.881V85h-3.572V69.325h3.572l6.232 9.728h.038v-9.728h3.572V85h-3.572l-6.232-9.728h-.038zm28.97-5.947L149.204 85h-3.838l-1.159-3.135h-5.966L137.082 85h-3.838l6.327-15.675h3.306zm.114 9.405l-1.748-4.56h-.038l-1.748 4.56h3.534zM161.986 85l-6.574-15.675h4.028l3.952 10.298 3.952-10.298h4.028L164.798 85h-2.812zm15.416-15.675V85h-3.572V69.325h3.572zm4.13 0h4.541c4.294 0 7.904 3.268 7.904 7.828 0 4.579-3.591 7.847-7.904 7.847h-4.541V69.325zm3.572 12.483h.551c2.641 0 4.446-2.014 4.465-4.636 0-2.622-1.805-4.655-4.465-4.655h-.551v9.291zm21.268-12.483v3.135h-5.396v3.116h5.168v3.135h-5.168v3.154h5.396V85h-8.968V69.325h8.968zm3.199 7.828c0-4.579 3.591-8.113 7.904-8.113 4.351 0 7.885 3.534 7.885 8.113s-3.382 8.132-7.885 8.132c-4.636 0-7.904-3.553-7.904-8.132zm3.857 0c0 2.337 1.121 4.674 4.047 4.674 2.85 0 4.028-2.337 4.028-4.674s-1.254-4.674-4.028-4.674c-2.755 0-4.047 2.337-4.047 4.674zm30.129 4.617c1.824 0 3.078-.969 3.078-.969l1.52 3.04s-1.748 1.444-5.149 1.444c-4.427 0-8.493-3.61-8.493-8.094 0-4.503 4.047-8.151 8.493-8.151 3.401 0 5.149 1.444 5.149 1.444l-1.52 3.04s-1.254-.969-3.078-.969c-3.591 0-5.168 2.508-5.168 4.598 0 2.109 1.577 4.617 5.168 4.617zm15.777-12.445L265.661 85h-3.838l-1.159-3.135h-5.966L253.539 85h-3.838l6.327-15.675h3.306zm.114 9.405l-1.748-4.56h-.038l-1.748 4.56h3.534zm12.243-9.405v12.54h5.396V85h-8.968V69.325h3.572zm12.585 0v12.54h5.396V85h-8.968V69.325h3.572zm-234.073 35v3.135h-5.491v3.116h5.073v3.135h-5.073V120H41.14v-15.675h9.063zm3.56 0h5.605c2.907 0 5.111 1.577 5.111 4.655 0 2.356-1.292 3.933-3.211 4.541L66.664 120h-4.541l-4.788-6.194V120h-3.572v-15.675zm3.572 6.954h.418c1.349 0 2.964-.095 2.964-2.052s-1.615-2.052-2.964-2.052h-.418v4.104zm11.179.874c0-4.579 3.591-8.113 7.904-8.113 4.351 0 7.885 3.534 7.885 8.113s-3.382 8.132-7.885 8.132c-4.636 0-7.904-3.553-7.904-8.132zm3.857 0c0 2.337 1.121 4.674 4.047 4.674 2.85 0 4.028-2.337 4.028-4.674s-1.254-4.674-4.028-4.674c-2.755 0-4.047 2.337-4.047 4.674zM100.688 120l-.741-9.291h-.095l-3.211 9.196h-2.128l-3.211-9.196h-.095L90.466 120h-3.572l1.406-15.675h3.8l3.477 9.044 3.477-9.044h3.8L104.26 120h-3.572zm24.315 0l-2.508-8.797-2.508 8.797h-3.971l-4.465-15.675h3.971l2.679 10.754h.095l2.85-10.754h2.698l2.85 10.754h.095l2.679-10.754h3.952L128.955 120h-3.952zm14.694-15.675V120h-3.572v-15.675h3.572zm2.23 3.135v-3.135h11.02v3.135h-3.724V120h-3.572v-12.54h-3.724zm17.734 6.251V120h-3.572v-15.675h3.572v6.251h5.054v-6.251h3.572V120h-3.572v-6.289h-5.054zm16.328-9.386V120h-3.572v-15.675h3.572zm7.702 5.947V120h-3.572v-15.675h3.572l6.232 9.728h.038v-9.728h3.572V120h-3.572l-6.232-9.728h-.038zm19.109-2.812v-3.135h11.02v3.135h-3.724V120h-3.572v-12.54H202.8zm17.734 6.251V120h-3.572v-15.675h3.572v6.251h5.054v-6.251h3.572V120h-3.572v-6.289h-5.054zm21.724-9.386v3.135h-5.396v3.116h5.168v3.135h-5.168v3.154h5.396V120h-8.968v-15.675h8.968zm18.9 0L267.485 120h-3.838l-1.159-3.135h-5.966L255.363 120h-3.838l6.327-15.675h3.306zm.114 9.405l-1.748-4.56h-.038l-1.748 4.56h3.534zm8.671-9.405h5.719c3.059 0 5.358 1.577 5.358 4.826 0 3.23-2.299 5.035-5.358 5.035h-2.147V120h-3.572v-15.675zm3.572 7.011h1.007c1.406 0 2.736-.475 2.736-2.071 0-1.615-1.33-2.09-2.736-2.09h-1.007v4.161zm10.932-7.011h5.719c3.059 0 5.358 1.577 5.358 4.826 0 3.23-2.299 5.035-5.358 5.035h-2.147V120h-3.572v-15.675zm3.572 7.011h1.007c1.406 0 2.736-.475 2.736-2.071 0-1.615-1.33-2.09-2.736-2.09h-1.007v4.161z"/>
        </g>
    </g>
</svg>
