<?xml version="1.0" encoding="UTF-8" standalone="no"?>
<svg width="170px" height="22px" viewBox="0 0 170 22" version="1.1" xmlns="http://www.w3.org/2000/svg" xmlns:xlink="http://www.w3.org/1999/xlink">
    <!-- Generator: sketchtool 50.2 (55047) - http://www.bohemiancoding.com/sketch -->
    <title>53E38B1B-789E-4611-8119-5C3C6C7C4090</title>
    <desc>Created with sketchtool.</desc>
    <defs></defs>
    <g id="Page-1" stroke="none" stroke-width="1" fill="none" fill-rule="evenodd">
        <g id="4-Days-of-Inactivity" transform="translate(-230.000000, -55.000000)" fill="#1F1F1F">
            <g id="Group-13" transform="translate(230.000000, 55.000000)">
                <g id="AnywhereWorks-Logo-Original">
                    <path d="M14.1727909,15.3488372 L0.801932773,15.3488372 C0.525790398,15.3488372 0.301932773,15.1249796 0.301932773,14.8488372 C0.301932773,14.7725458 0.319390976,14.6972661 0.352970613,14.6287623 L7.06075899,0.944591043 C7.18230302,0.696636089 7.48184114,0.59415979 7.72979609,0.715703823 C7.82976676,0.764708038 7.91052205,0.845676662 7.95926235,0.945776264 L14.6223321,14.6299475 C14.7432216,14.8782222 14.6399554,15.177489 14.3916807,15.2983784 C14.3234889,15.3315822 14.2486369,15.3488372 14.1727909,15.3488372 Z M16.1491309,14.2320757 L16.1491309,0.523909882 C16.1491309,0.248437862 16.3719433,0.0248588891 16.6474137,0.0239128308 L23.6102797,0 L30.5731457,0.0239128308 C30.8486161,0.0248588891 31.0714286,0.248437862 31.0714286,0.523909882 L31.0714286,14.2320757 C31.0714286,14.5082181 30.8475709,14.7320757 30.5714286,14.7320757 C30.4515906,14.7320757 30.3357384,14.6890345 30.2449697,14.6107901 L23.9367386,9.17297711 C23.7491393,9.01126298 23.4714202,9.01126298 23.2838208,9.17297711 L16.9755898,14.6107901 C16.7664316,14.7910884 16.4507147,14.7676928 16.2704165,14.5585346 C16.1921721,14.4677658 16.1491309,14.3519137 16.1491309,14.2320757 Z" id="AW"></path>
                    <path d="M36.1885,15.3488372 C35.8735,15.3488372 35.7055,15.0694884 35.8315,14.7901395 L42.2785,0.328465116 C42.3415,0.199534884 42.5305,0.0920930233 42.6355,0.0920930233 L42.8455,0.0920930233 C42.9505,0.0920930233 43.1395,0.199534884 43.2025,0.328465116 L49.6075,14.7901395 C49.7335,15.0694884 49.5655,15.3488372 49.2505,15.3488372 L47.9275,15.3488372 C47.6755,15.3488372 47.5285,15.219907 47.4445,15.0265116 L46.1425,12.0826047 L39.2755,12.0826047 C38.8555,13.0710698 38.4145,14.0380465 37.9945,15.0265116 C37.9315,15.1769302 37.7635,15.3488372 37.5115,15.3488372 L36.1885,15.3488372 Z M40.0945,10.2346047 L45.3445,10.2346047 L42.7615,4.3467907 L42.6565,4.3467907 L40.0945,10.2346047 Z M50.9725,14.9405581 C50.9725,15.1554419 51.1615,15.3488372 51.3715,15.3488372 L52.4635,15.3488372 C52.8205,15.3488372 52.9465,15.219907 52.9465,14.9405581 L52.9465,9.69739535 C53.0515,9.39655814 53.9545,8.40809302 55.2775,8.40809302 C56.3695,8.40809302 57.0205,9.16018605 57.0205,10.5354419 L57.0205,14.9405581 C57.0205,15.1554419 57.1885,15.3488372 57.4195,15.3488372 L58.6165,15.3488372 C58.8265,15.3488372 59.0155,15.1554419 59.0155,14.9405581 L59.0155,10.6213953 C59.0155,8.38660465 58.0705,6.53860465 55.5085,6.53860465 C53.8285,6.53860465 52.7155,7.57004651 52.5685,7.74195349 L52.3165,7.01134884 C52.2745,6.86093023 52.1485,6.75348837 51.9805,6.75348837 L51.3715,6.75348837 C51.1615,6.75348837 50.9725,6.94688372 50.9725,7.16176744 L50.9725,14.9405581 Z M64.0975,15.048 L61.2835,21.2151628 C61.1365,21.516 61.3255,21.7953488 61.6405,21.7953488 L62.9005,21.7953488 C63.0685,21.7953488 63.1945,21.6664186 63.2575,21.5374884 L69.6835,7.31218605 C69.8305,7.03283721 69.6625,6.75348837 69.3265,6.75348837 L68.1295,6.75348837 C67.9405,6.75348837 67.7725,6.79646512 67.6885,6.98986047 L65.1685,12.7057674 L65.1475,12.7057674 L62.5435,6.98986047 C62.4805,6.86093023 62.3125,6.75348837 62.1865,6.75348837 L60.8005,6.75348837 C60.4855,6.75348837 60.3175,7.03283721 60.4435,7.31218605 L64.0975,15.048 Z M73.0015,15.3488372 C73.0435,15.4777674 73.1905,15.5637209 73.3585,15.5637209 L73.4635,15.5637209 C73.6315,15.5637209 73.7575,15.4777674 73.7995,15.3703256 L76.3615,9.63293023 L76.3825,9.63293023 L78.9655,15.3703256 C79.0075,15.4777674 79.1545,15.5637209 79.3225,15.5637209 L79.4065,15.5637209 C79.5955,15.5637209 79.7425,15.4777674 79.7845,15.3488372 L82.2415,7.24772093 C82.3675,6.96837209 82.2205,6.75348837 81.9265,6.75348837 L81.1075,6.75348837 C80.8765,6.75348837 80.5615,6.75348837 80.4565,7.01134884 L79.0705,11.7817674 L79.0495,11.7817674 L76.8235,6.75348837 C76.7815,6.64604651 76.6555,6.53860465 76.4665,6.53860465 L76.3405,6.53860465 C76.1725,6.53860465 76.0255,6.64604651 75.9835,6.75348837 L73.7365,11.7602791 L73.7155,11.7602791 L72.3085,7.01134884 C72.2665,6.86093023 72.0775,6.75348837 71.9305,6.75348837 L70.7965,6.75348837 C70.5025,6.75348837 70.3765,6.96837209 70.5025,7.24772093 L73.0015,15.3488372 Z M84.1735,14.9405581 C84.1735,15.1554419 84.3625,15.3488372 84.5725,15.3488372 L85.7695,15.3488372 C86.0425,15.3488372 86.1895,15.1769302 86.1895,14.9405581 L86.1895,9.76186047 C86.2945,9.39655814 87.1765,8.40809302 88.4575,8.40809302 C89.5495,8.40809302 90.2425,9.18167442 90.2425,10.5784186 L90.2425,14.9405581 C90.2425,15.1554419 90.4105,15.3488372 90.6415,15.3488372 L91.8175,15.3488372 C92.0275,15.3488372 92.2165,15.1554419 92.2165,14.9405581 L92.2165,10.6213953 C92.2165,8.27916279 91.0825,6.53860465 88.7095,6.53860465 C87.3655,6.53860465 86.3995,7.31218605 86.1895,7.46260465 L86.1895,0.715255814 C86.1895,0.500372093 86.0005,0.306976744 85.7905,0.306976744 L84.5725,0.306976744 C84.3625,0.306976744 84.1735,0.500372093 84.1735,0.715255814 L84.1735,14.9405581 Z M94.2325,11.0511628 C94.2325,8.62297674 95.9125,6.53860465 98.4325,6.53860465 C100.6165,6.53860465 102.2965,8.21469767 102.2965,10.5139535 C102.2965,10.6643721 102.2755,10.9437209 102.2545,11.0941395 C102.2335,11.3090233 102.0655,11.4594419 101.8765,11.4594419 L96.1645,11.4594419 C96.2275,12.619814 97.2145,13.7586977 98.5795,13.7586977 C99.3355,13.7586977 100.0285,13.4148837 100.4485,13.1355349 C100.7005,12.9851163 100.8475,12.8991628 101.0155,13.1140465 L101.6035,13.9306047 C101.7505,14.1025116 101.8135,14.2744186 101.5615,14.4893023 C100.9525,15.0265116 99.8605,15.5637209 98.4535,15.5637209 C95.9125,15.5637209 94.2325,13.5223256 94.2325,11.0511628 Z M96.2695,10.1056744 L100.3435,10.1056744 C100.2805,9.07423256 99.4405,8.1932093 98.4115,8.1932093 C97.2775,8.1932093 96.3955,9.03125581 96.2695,10.1056744 Z M104.3125,14.9405581 C104.3125,15.1554419 104.5015,15.3488372 104.7115,15.3488372 L105.7195,15.3488372 C106.0555,15.3488372 106.2865,15.3058605 106.2865,14.9405581 L106.2865,9.48251163 C106.3705,9.33209302 106.9585,8.4295814 108.1765,8.4295814 C108.4495,8.4295814 108.7645,8.51553488 108.8905,8.58 C109.0795,8.66595349 109.2895,8.62297674 109.3945,8.38660465 L109.8985,7.33367442 C110.1295,6.75348837 109.1635,6.53860465 108.3655,6.53860465 C106.8325,6.53860465 106.0555,7.57004651 105.9085,7.78493023 L105.6775,7.05432558 C105.6355,6.8824186 105.4675,6.75348837 105.3205,6.75348837 L104.7115,6.75348837 C104.5015,6.75348837 104.3125,6.94688372 104.3125,7.16176744 L104.3125,14.9405581 Z M110.6965,11.0511628 C110.6965,8.62297674 112.3765,6.53860465 114.8965,6.53860465 C117.0805,6.53860465 118.7605,8.21469767 118.7605,10.5139535 C118.7605,10.6643721 118.7395,10.9437209 118.7185,11.0941395 C118.6975,11.3090233 118.5295,11.4594419 118.3405,11.4594419 L112.6285,11.4594419 C112.6915,12.619814 113.6785,13.7586977 115.0435,13.7586977 C115.7995,13.7586977 116.4925,13.4148837 116.9125,13.1355349 C117.1645,12.9851163 117.3115,12.8991628 117.4795,13.1140465 L118.0675,13.9306047 C118.2145,14.1025116 118.2775,14.2744186 118.0255,14.4893023 C117.4165,15.0265116 116.3245,15.5637209 114.9175,15.5637209 C112.3765,15.5637209 110.6965,13.5223256 110.6965,11.0511628 Z M112.7335,10.1056744 L116.8075,10.1056744 C116.7445,9.07423256 115.9045,8.1932093 114.8755,8.1932093 C113.7415,8.1932093 112.8595,9.03125581 112.7335,10.1056744 Z M122.8135,15.2628837 C122.8555,15.4347907 123.0235,15.5637209 123.1915,15.5637209 L123.5275,15.5637209 C123.6745,15.5637209 123.8425,15.4562791 123.8845,15.3273488 L127.5175,4.64762791 L127.6225,4.64762791 L131.3185,15.3273488 C131.3605,15.4562791 131.5285,15.5637209 131.6755,15.5637209 L132.0115,15.5637209 C132.1795,15.5637209 132.3475,15.4347907 132.3895,15.2628837 L136.3585,0.822697674 C136.4425,0.521860465 136.2745,0.306976744 135.9805,0.306976744 L134.5735,0.306976744 C134.4055,0.306976744 134.2375,0.457395349 134.1955,0.607813953 L131.6965,10.4709767 L131.6125,10.4709767 L128.1475,0.328465116 C128.1055,0.199534884 127.9585,0.0920930233 127.7905,0.0920930233 L127.4125,0.0920930233 C127.2445,0.0920930233 127.0975,0.199534884 127.0555,0.328465116 L123.6325,10.4709767 L123.5485,10.4709767 L121.0075,0.607813953 C120.9655,0.457395349 120.7975,0.306976744 120.6295,0.306976744 L119.2225,0.306976744 C118.9285,0.306976744 118.7605,0.521860465 118.8445,0.822697674 L122.8135,15.2628837 Z M136.6315,11.0296744 C136.6315,8.60148837 138.5215,6.53860465 140.8735,6.53860465 C143.2255,6.53860465 145.1155,8.60148837 145.1155,11.0296744 C145.1155,13.5008372 143.2255,15.5637209 140.8735,15.5637209 C138.5215,15.5637209 136.6315,13.5008372 136.6315,11.0296744 Z M138.5005,11.0296744 C138.5005,12.5123721 139.5505,13.7157209 140.8735,13.7157209 C142.1965,13.7157209 143.2465,12.5123721 143.2465,11.0296744 C143.2465,9.58995349 142.1965,8.40809302 140.8735,8.40809302 C139.5505,8.40809302 138.5005,9.58995349 138.5005,11.0296744 Z M147.2155,14.9405581 C147.2155,15.1554419 147.4045,15.3488372 147.6145,15.3488372 L148.6225,15.3488372 C148.9585,15.3488372 149.1895,15.3058605 149.1895,14.9405581 L149.1895,9.48251163 C149.2735,9.33209302 149.8615,8.4295814 151.0795,8.4295814 C151.3525,8.4295814 151.6675,8.51553488 151.7935,8.58 C151.9825,8.66595349 152.1925,8.62297674 152.2975,8.38660465 L152.8015,7.33367442 C153.0325,6.75348837 152.0665,6.53860465 151.2685,6.53860465 C149.7355,6.53860465 148.9585,7.57004651 148.8115,7.78493023 L148.5805,7.05432558 C148.5385,6.8824186 148.3705,6.75348837 148.2235,6.75348837 L147.6145,6.75348837 C147.4045,6.75348837 147.2155,6.94688372 147.2155,7.16176744 L147.2155,14.9405581 Z M154.2715,14.9405581 C154.2715,15.1554419 154.4605,15.3488372 154.6705,15.3488372 L155.8885,15.3488372 C156.0985,15.3488372 156.2875,15.1554419 156.2875,14.9405581 L156.2875,11.180093 L160.0885,15.1769302 C160.1515,15.2628837 160.3195,15.3488372 160.4665,15.3488372 L162.1885,15.3488372 C162.5455,15.3488372 162.6085,14.9835349 162.4195,14.7901395 L158.3035,10.5784186 L161.7895,7.33367442 C161.9785,7.16176744 161.9155,6.75348837 161.5585,6.75348837 L160.0885,6.75348837 C159.8785,6.75348837 159.7105,6.8824186 159.5635,7.01134884 L156.2875,10.0197209 L156.2875,0.715255814 C156.2875,0.500372093 156.0985,0.306976744 155.8885,0.306976744 L154.6705,0.306976744 C154.4605,0.306976744 154.2715,0.500372093 154.2715,0.715255814 L154.2715,14.9405581 Z M163.7005,14.6826977 C164.1415,15.048 165.0655,15.5637209 166.4725,15.5637209 C168.3415,15.5637209 169.5805,14.3818605 169.5805,13.0495814 C169.5805,11.4379535 168.3205,10.771814 166.7875,10.084186 C165.9685,9.71888372 165.4435,9.48251163 165.4435,8.92381395 C165.4435,8.60148837 165.6745,8.27916279 166.3885,8.27916279 C167.1865,8.27916279 168.1105,8.7304186 168.1105,8.7304186 C168.2785,8.81637209 168.5515,8.75190698 168.6565,8.55851163 L169.0345,7.82790698 C169.1605,7.61302326 169.0555,7.33367442 168.8665,7.20474419 C168.4465,6.92539535 167.5645,6.53860465 166.3885,6.53860465 C164.3725,6.53860465 163.5115,7.82790698 163.5115,8.90232558 C163.5115,10.3205581 164.6035,11.1371163 165.9055,11.7173023 C167.0605,12.2545116 167.5225,12.5338605 167.5225,13.1140465 C167.5225,13.5867907 167.1235,13.8446512 166.4935,13.8446512 C165.4645,13.8446512 164.5405,13.2859535 164.5405,13.2859535 C164.3305,13.1570233 164.0995,13.2214884 164.0155,13.3933953 L163.5745,14.2314419 C163.4905,14.4033488 163.5745,14.5967442 163.7005,14.6826977 Z" id="AnywhereWorks"></path>
                </g>
            </g>
        </g>
    </g>
</svg>